# xmcd CD database file generated by Grip 2.95
# 
# Track frame offsets:
#       150
#       12802
#       24135
#       37117
#       51022
#       61470
#       73425
#       85060
#       94500
#       105382
#       115900
#       131447
#       141532
#       153547
#       165340
#       183067
#       196952
#       208162
#       223155
#       238117
#       254305
#       265005
#       277597
#       287657
# 
# Disc length: 4019 seconds
# 
# Revision: 3
# Processed by: cddbd v1.4b41PL1 Copyright (c) Steve Scherf et al.
# Submitted via: Grip 2.95
# 
DISCID=520fb118
DTITLE=Frankie Laine - Deuces Wild - Call of the Wild
DYEAR=1900
DGENRE=
TTITLE0=The Hard Way
TTITLE1=Camptown Races
TTITLE2=Luck Be a Lady
TTITLE3=Get Rich Quick
TTITLE4=Horses and Women
TTITLE5=Moonlight Gambler
TTITLE6=Ace in the Hole
TTITLE7=The Man Who Broke the Bank at Monte Carlo
TTITLE8=Dead Man's Hand
TTITLE9=The Roving Gambler
TTITLE10=Deuces Wild
TTITLE11=Gamblin' Woman
TTITLE12=Song of the Open Road
TTITLE13=North to Alaska
TTITLE14=The Swamp Girl
TTITLE15=Beyond the Blue Horizon (2)
TTITLE16=Call of the Wild
TTITLE17=On the Trail
TTITLE18=The Wayfarling Stranger
TTITLE19=Tumbling Tumbleweeds
TTITLE20=The High Road
TTITLE21=Rolling Stone
TTITLE22=The New Frontier
TTITLE23=The Girl in the Wood
EXTD=
EXTT0=
EXTT1=
EXTT2=
EXTT3=
EXTT4=
EXTT5=
EXTT6=
EXTT7=
EXTT8=
EXTT9=
EXTT10=
EXTT11=
EXTT12=
EXTT13=
EXTT14=
EXTT15=
EXTT16=
EXTT17=
EXTT18=
EXTT19=
EXTT20=
EXTT21=
EXTT22=
EXTT23=
PLAYORDER=
